<svg width="62" height="62" viewBox="0 0 62 62" fill="none" xmlns="http://www.w3.org/2000/svg">
<path fill-rule="evenodd" clip-rule="evenodd" d="M12.9583 8.02197C10.936 8.02197 8.99653 8.82532 7.56656 10.2553C6.1366 11.6852 5.33325 13.6247 5.33325 15.647V41.0636C5.33325 42.4118 5.86882 43.7048 6.82213 44.6581C7.77544 45.6114 9.0684 46.147 10.4166 46.147V15.647C10.4166 14.9729 10.6844 14.3264 11.161 13.8497C11.6377 13.3731 12.2842 13.1053 12.9583 13.1053H48.5416C48.5416 11.7571 48.006 10.4642 47.0527 9.51085C46.0994 8.55754 44.8064 8.02197 43.4582 8.02197H12.9583ZM12.9583 20.7303C12.9583 19.3821 13.4938 18.0892 14.4471 17.1358C15.4004 16.1825 16.6934 15.647 18.0416 15.647H51.0832C52.4314 15.647 53.7244 16.1825 54.6777 17.1358C55.631 18.0892 56.1666 19.3821 56.1666 20.7303V49.535C56.1666 50.8832 55.631 52.1762 54.6777 53.1295C53.7244 54.0828 52.4314 54.6183 51.0832 54.6183H18.0416C16.6934 54.6183 15.4004 54.0828 14.4471 53.1295C13.4938 52.1762 12.9583 50.8832 12.9583 49.535V20.7303ZM51.0832 20.7303H18.0416V40.6773L27.8219 30.897C28.1169 30.6019 28.4672 30.3678 28.8527 30.208C29.2383 30.0483 29.6515 29.9661 30.0688 29.9661C30.486 29.9661 30.8992 30.0483 31.2848 30.208C31.6703 30.3678 32.0206 30.6019 32.3156 30.897L40.5531 39.132L42.8 36.8877C43.095 36.5926 43.4453 36.3585 43.8308 36.1988C44.2163 36.039 44.6295 35.9568 45.0468 35.9568C45.4641 35.9568 45.8773 36.039 46.2628 36.1988C46.6483 36.3585 46.9986 36.5926 47.2936 36.8877L51.0832 40.6773V20.7303ZM45.9999 28.3553C45.9999 29.3664 45.5982 30.3362 44.8833 31.0511C44.1683 31.7661 43.1986 32.1678 42.1874 32.1678C41.1763 32.1678 40.2066 31.7661 39.4916 31.0511C38.7766 30.3362 38.3749 29.3664 38.3749 28.3553C38.3749 27.3442 38.7766 26.3744 39.4916 25.6595C40.2066 24.9445 41.1763 24.5428 42.1874 24.5428C43.1986 24.5428 44.1683 24.9445 44.8833 25.6595C45.5982 26.3744 45.9999 27.3442 45.9999 28.3553Z" fill="#FFD214"/>
</svg>
