<svg width="15" height="16" viewBox="0 0 15 16" fill="none" xmlns="http://www.w3.org/2000/svg">
<path d="M5.79004 15.2632C6.28255 15.2632 6.66162 15.0612 6.92725 14.6572L14.6968 2.6377C14.7909 2.49382 14.86 2.35547 14.9043 2.22266C14.9486 2.08984 14.9707 1.95703 14.9707 1.82422C14.9707 1.49772 14.8628 1.22933 14.647 1.01904C14.4312 0.808757 14.1545 0.703613 13.8169 0.703613C13.5845 0.703613 13.3908 0.750651 13.2358 0.844727C13.0809 0.933268 12.9315 1.08822 12.7876 1.30957L5.75684 12.4492L2.1543 7.88379C1.89421 7.55729 1.57324 7.39404 1.19141 7.39404C0.853841 7.39404 0.574382 7.50195 0.353027 7.71777C0.131673 7.93359 0.0209961 8.20752 0.0209961 8.53955C0.0209961 8.68896 0.0458984 8.83285 0.0957031 8.97119C0.151042 9.10954 0.239583 9.25065 0.361328 9.39453L4.66113 14.6904C4.97103 15.0723 5.34733 15.2632 5.79004 15.2632Z" fill="#007AFF"/>
</svg>
