<svg width="14" height="16" viewBox="0 0 14 16" fill="none" xmlns="http://www.w3.org/2000/svg">
<path d="M12.54 0.727933C12.315 0.497089 12.0479 0.313982 11.754 0.189078C11.46 0.0641742 11.1449 -7.61342e-05 10.8266 6.77029e-08C10.5084 7.62696e-05 10.1933 0.0644775 9.8994 0.189522C9.60547 0.314566 9.33845 0.497802 9.1136 0.728753L1.508 8.53997C1.05483 9.00583 0.800225 9.63696 0.8 10.295V12.9231C0.8 13.2628 1.0688 13.5385 1.4 13.5385H3.9784C4.6208 13.5385 5.2368 13.2759 5.6904 12.8107L13.2904 5.01097C13.7438 4.5449 13.9983 3.91343 13.9983 3.25509C13.9983 2.59674 13.7438 1.96528 13.2904 1.49921L12.54 0.727933ZM0.6 14.7692C0.44087 14.7692 0.288258 14.8341 0.175736 14.9495C0.063214 15.0649 0 15.2214 0 15.3846C0 15.5478 0.063214 15.7044 0.175736 15.8198C0.288258 15.9352 0.44087 16 0.6 16H13.4C13.5591 16 13.7117 15.9352 13.8243 15.8198C13.9368 15.7044 14 15.5478 14 15.3846C14 15.2214 13.9368 15.0649 13.8243 14.9495C13.7117 14.8341 13.5591 14.7692 13.4 14.7692H0.6Z" fill="black"/>
</svg>
