<svg width="25" height="24" viewBox="0 0 25 24" fill="none" xmlns="http://www.w3.org/2000/svg">
<path d="M12.5 2C10.3783 2 8.34344 2.77437 6.84315 4.15277C5.34285 5.53116 4.5 7.40066 4.5 9.35C4.5 11.849 5.86 14.0435 7.92857 15.377V17.75C7.92857 18.0285 8.04898 18.2955 8.26331 18.4925C8.47763 18.6894 8.76832 18.8 9.07143 18.8H15.9286C16.2317 18.8 16.5224 18.6894 16.7367 18.4925C16.951 18.2955 17.0714 18.0285 17.0714 17.75V15.377C19.14 14.0435 20.5 11.849 20.5 9.35C20.5 7.40066 19.6571 5.53116 18.1569 4.15277C16.6566 2.77437 14.6217 2 12.5 2ZM9.07143 21.95C9.07143 22.2285 9.19184 22.4955 9.40616 22.6925C9.62049 22.8894 9.91118 23 10.2143 23H14.7857C15.0888 23 15.3795 22.8894 15.5938 22.6925C15.8082 22.4955 15.9286 22.2285 15.9286 21.95V20.9H9.07143V21.95Z" fill="currentColor"/>
</svg>
