<svg width="25" height="24" viewBox="0 0 25 24" fill="none" xmlns="http://www.w3.org/2000/svg">
<path d="M9.07996 4.03222L8.57298 16.8775C7.89073 16.5363 7.03478 16.3886 6.13666 16.5129C4.20011 16.7802 2.80566 18.204 3.02216 19.6926C3.23869 21.1813 4.98406 22.1711 6.92053 21.9038C8.63918 21.6664 9.92926 20.5181 10.0465 19.2223L10.0468 19.223C10.0471 19.2201 10.0473 19.2157 10.0475 19.2124C10.0504 19.1795 10.0521 19.1461 10.0533 19.113C10.1254 17.775 10.5669 7.6119 10.5669 7.6119L21.4405 6.52L20.9494 15.6731C20.2516 15.2945 19.3547 15.1259 18.4116 15.2562C16.4751 15.5238 15.0807 16.9472 15.2973 18.4361C15.5137 19.9246 17.2591 20.9147 19.1956 20.647C20.9508 20.4048 22.2586 19.2123 22.3272 17.8827L22.328 17.8819C22.3648 17.2844 22.9783 3.48756 23 3L9.07996 4.03222Z" fill="currentColor"/>
</svg>
