<svg width="19" height="16" viewBox="0 0 19 16" fill="none" xmlns="http://www.w3.org/2000/svg">
<path d="M18.3214 8.3121e-07H13.4696C12.4285 8.3121e-07 11.4106 0.321094 10.5348 0.926844L9.5 1.63963L8.46518 0.926844C7.59027 0.32121 6.57128 -0.000596916 5.53036 8.3121e-07H0.678571C0.303237 8.3121e-07 0 0.325648 0 0.728723V13.6635C0 14.0666 0.303237 14.3923 0.678571 14.3923H5.53036C6.57154 14.3923 7.5894 14.7134 8.46518 15.3191L9.4067 15.9704C9.43426 15.9886 9.46607 16 9.49788 16C9.52969 16 9.5615 15.9909 9.58906 15.9704L10.5306 15.3191C11.4085 14.7134 12.4285 14.3923 13.4696 14.3923H18.3214C18.6968 14.3923 19 14.0666 19 13.6635V0.728723C19 0.325648 18.6968 8.3121e-07 18.3214 8.3121e-07ZM7.20982 8.93823C7.20982 9.0316 7.14196 9.10902 7.05926 9.10902H3.11931C3.03661 9.10902 2.96875 9.0316 2.96875 8.93823V7.91346C2.96875 7.8201 3.03661 7.74267 3.11931 7.74267H7.05714C7.13984 7.74267 7.2077 7.8201 7.2077 7.91346V8.93823H7.20982ZM7.20982 5.75007C7.20982 5.84344 7.14196 5.92087 7.05926 5.92087H3.11931C3.03661 5.92087 2.96875 5.84344 2.96875 5.75007V4.72531C2.96875 4.63194 3.03661 4.55451 3.11931 4.55451H7.05714C7.13984 4.55451 7.2077 4.63194 7.2077 4.72531V5.75007H7.20982ZM16.0312 8.93823C16.0312 9.0316 15.9634 9.10902 15.8807 9.10902H11.9407C11.858 9.10902 11.7902 9.0316 11.7902 8.93823V7.91346C11.7902 7.8201 11.858 7.74267 11.9407 7.74267H15.8786C15.9613 7.74267 16.0291 7.8201 16.0291 7.91346V8.93823H16.0312ZM16.0312 5.75007C16.0312 5.84344 15.9634 5.92087 15.8807 5.92087H11.9407C11.858 5.92087 11.7902 5.84344 11.7902 5.75007V4.72531C11.7902 4.63194 11.858 4.55451 11.9407 4.55451H15.8786C15.9613 4.55451 16.0291 4.63194 16.0291 4.72531V5.75007H16.0312Z" fill="black"/>
</svg>
