<svg width="21" height="20" viewBox="0 0 21 20" fill="none" xmlns="http://www.w3.org/2000/svg">
<path d="M20.5107 1.77505C20.5107 1.47393 20.4279 1.17862 20.2713 0.921408C20.1147 0.664196 19.8903 0.454994 19.6228 0.316682C19.3553 0.178371 19.0548 0.116277 18.7544 0.137192C18.4539 0.158108 18.165 0.261228 17.9192 0.435273L6.4232 8.58393C6.20965 8.73489 6.03526 8.93466 5.91453 9.16661C5.7938 9.39856 5.73023 9.65599 5.7291 9.91746C5.72798 10.1789 5.78933 10.4369 5.90806 10.6699C6.02679 10.9029 6.19946 11.1041 6.41171 11.2569L17.9077 19.5271C18.153 19.7039 18.4423 19.8096 18.7438 19.8326C19.0453 19.8555 19.3473 19.7948 19.6165 19.6571C19.8857 19.5194 20.1117 19.3101 20.2695 19.0522C20.4272 18.7943 20.5107 18.4978 20.5107 18.1955V1.77505ZM0.803295 0.950823C0.803295 0.733096 0.889808 0.524287 1.0438 0.370331C1.1978 0.216375 1.40666 0.129883 1.62444 0.129883C1.84222 0.129883 2.05108 0.216375 2.20508 0.370331C2.35907 0.524287 2.44558 0.733096 2.44558 0.950823V19.0115C2.44558 19.2292 2.35907 19.4381 2.20508 19.592C2.05108 19.746 1.84222 19.8325 1.62444 19.8325C1.40666 19.8325 1.1978 19.746 1.0438 19.592C0.889808 19.4381 0.803295 19.2292 0.803295 19.0115V0.950823Z" fill="#ABABAB"/>
</svg>
