<svg width="21" height="20" viewBox="0 0 21 20" fill="none" xmlns="http://www.w3.org/2000/svg">
<path d="M0.489502 1.77505C0.489513 1.47393 0.572351 1.17862 0.728955 0.921408C0.88556 0.664196 1.1099 0.454994 1.37744 0.316682C1.64497 0.178371 1.9454 0.116277 2.24586 0.137192C2.54633 0.158108 2.83525 0.261228 3.08103 0.435273L14.577 8.58393C14.7906 8.73489 14.965 8.93466 15.0857 9.16661C15.2064 9.39856 15.27 9.65599 15.2711 9.91746C15.2723 10.1789 15.2109 10.4369 15.0922 10.6699C14.9735 10.9029 14.8008 11.1041 14.5885 11.2569L3.09253 19.5271C2.84728 19.7039 2.55795 19.8096 2.25643 19.8326C1.95491 19.8555 1.65291 19.7948 1.38372 19.6571C1.11452 19.5194 0.888577 19.3101 0.730793 19.0522C0.57301 18.7943 0.489512 18.4978 0.489502 18.1955V1.77505ZM20.1969 0.950823C20.1969 0.733096 20.1104 0.524287 19.9564 0.370331C19.8024 0.216375 19.5936 0.129883 19.3758 0.129883C19.158 0.129883 18.9492 0.216375 18.7952 0.370331C18.6412 0.524287 18.5547 0.733096 18.5547 0.950823V19.0115C18.5547 19.2292 18.6412 19.4381 18.7952 19.592C18.9492 19.746 19.158 19.8325 19.3758 19.8325C19.5936 19.8325 19.8024 19.746 19.9564 19.592C20.1104 19.4381 20.1969 19.2292 20.1969 19.0115V0.950823Z" fill="#ABABAB"/>
</svg>
